<svg width="34" height="35" viewBox="0 0 34 35" fill="none" xmlns="http://www.w3.org/2000/svg">
<path d="M16.9834 0.421021C7.78337 0.421021 0.333374 8.08418 0.333374 17.5263C0.333374 26.9684 7.78337 34.6315 16.9834 34.6315C26.2 34.6315 33.6667 26.9684 33.6667 17.5263C33.6667 8.08418 26.2 0.421021 16.9834 0.421021ZM17 31.2105C9.63337 31.2105 3.66671 25.0868 3.66671 17.5263C3.66671 9.96576 9.63337 3.84207 17 3.84207C24.3667 3.84207 30.3334 9.96576 30.3334 17.5263C30.3334 25.0868 24.3667 31.2105 17 31.2105Z" fill="#247BA0"/>
<path d="M17.8334 8.97363H15.3334V19.2368L24.0834 24.6249L25.3334 22.521L17.8334 17.9539V8.97363Z" fill="#247BA0"/>
</svg>

